<?xml version="1.0" encoding="UTF-8" standalone="no"?>
<!-- Created with Inkscape (http://www.inkscape.org/) -->

<svg
   version="1.1"
   id="svg1"
   width="338.29333"
   height="69.440002"
   viewBox="0 0 338.29333 69.440002"
   sodipodi:docname="dfg.eps"
   xmlns:inkscape="http://www.inkscape.org/namespaces/inkscape"
   xmlns:sodipodi="http://sodipodi.sourceforge.net/DTD/sodipodi-0.dtd"
   xmlns="http://www.w3.org/2000/svg"
   xmlns:svg="http://www.w3.org/2000/svg">
  <defs
     id="defs1" />
  <sodipodi:namedview
     id="namedview1"
     pagecolor="#ffffff"
     bordercolor="#000000"
     borderopacity="0.25"
     inkscape:showpageshadow="2"
     inkscape:pageopacity="0.0"
     inkscape:pagecheckerboard="0"
     inkscape:deskcolor="#d1d1d1">
    <inkscape:page
       x="0"
       y="0"
       inkscape:label="1"
       id="page1"
       width="338.29333"
       height="69.440002"
       margin="0"
       bleed="0" />
  </sodipodi:namedview>
  <g
     id="g1"
     inkscape:groupmode="layer"
     inkscape:label="1">
    <g
       id="group-R5">
      <path
         id="path2"
         d="m 0,229.133 h 150.48 c 39.79,0 74.36,8.543 98.872,30.152 24.511,21.606 39.539,56.528 39.57,110.754 -0.02,58.242 -14.043,93.613 -37.383,114.563 -23.34,20.964 -56.758,28.007 -96.637,27.996 v 0.011 H 0 v -61.222 h 104.691 26.508 c 19.879,0.109 33.469,-6.942 41.149,-20.586 7.703,-13.535 10.011,-32.793 10.039,-57.86 -0.028,-24.23 -2.137,-43.273 -9.668,-56.82 -7.52,-13.621 -21.02,-20.918 -41.117,-20.797 h -29.891 v 100.34 H 0 V 229.133"
         style="fill:#2056ae;fill-opacity:1;fill-rule:nonzero;stroke:none"
         transform="matrix(0.13333333,0,0,-0.13333333,0,69.44)" />
      <path
         id="path3"
         d="m 311.012,229.133 h 101.703 v 102.832 h 126.719 v 63.699 H 412.715 v 55.723 h 126.719 v 61.222 H 311.012 V 229.133"
         style="fill:#2056ae;fill-opacity:1;fill-rule:nonzero;stroke:none"
         transform="matrix(0.13333333,0,0,-0.13333333,0,69.44)" />
      <path
         id="path4"
         d="m 609.473,481.828 c -30.047,-23.769 -49.043,-59.113 -49.082,-106.816 0.039,-50.918 18.32,-88.352 47.949,-113.352 29.648,-24.988 70.918,-37.5 116.992,-37.5 43.152,0.012 77.246,4.356 113.125,15 v 130.801 h -86.426 v -76.18 l -1.914,-0.746 c -7.265,-2.769 -16.328,-2.652 -23.984,-2.691 -22.285,-0.063 -38.164,9.258 -47.91,23.699 -9.766,14.426 -13.692,33.645 -13.711,53.926 -0.02,26.965 9.14,48.086 25.371,62.207 16.222,14.133 39.172,21.211 66.387,21.211 27.832,0 49.765,-6.258 65.371,-14.481 v 70.528 c -25.703,6.277 -45.262,10.125 -96.309,10.144 h -0.019 c -44.454,0 -85.782,-12.012 -115.84,-35.75"
         style="fill:#2056ae;fill-opacity:1;fill-rule:nonzero;stroke:none"
         transform="matrix(0.13333333,0,0,-0.13333333,0,69.44)" />
      <path
         id="path5"
         d="m 993.523,417.559 h 8.287 c 30.8,-0.684 46.61,13.984 47.41,43.984 -0.24,15.773 -4.2,26.895 -11.89,33.379 -7.83,6.183 -17.55,9.23 -29.16,9.133 h -14.647 z m -9.91,95.39 h 25.007 c 17.94,-0.195 30.92,-5.019 38.93,-14.453 7.82,-9.48 11.68,-21.992 11.58,-37.508 -0.18,-18.633 -5.65,-32.043 -16.39,-40.207 -10.59,-8.086 -24.42,-12.121 -41.47,-12.121 h -17.657 v 104.289"
         style="fill:#2056ae;fill-opacity:1;fill-rule:nonzero;stroke:none"
         transform="matrix(0.13333333,0,0,-0.13333333,0,69.44)" />
      <path
         id="path6"
         d="m 1128.18,452.07 c 0,7.012 -1.41,13.125 -4.24,18.36 -2.98,5.293 -7.88,8.027 -14.67,8.222 -6.66,-0.195 -11.93,-2.988 -15.8,-8.359 -3.97,-5.438 -5.95,-11.504 -5.95,-18.223 z m 4.43,-41.035 c -6.93,-2.707 -14.07,-4.101 -21.42,-4.199 -12.07,0.242 -20.71,4.082 -25.95,11.531 -5.18,7.297 -7.73,16.762 -7.63,28.391 0.1,11.875 2.99,21.484 8.69,28.828 5.51,7.297 12.98,10.996 22.4,11.094 10.31,-0.196 17.85,-3.946 22.61,-11.239 4.52,-7.16 6.79,-16.007 6.79,-26.562 v -4.816 h -50.58 c 0,-8.301 2.08,-15.125 6.23,-20.489 4.05,-5.722 10.1,-8.613 18.12,-8.711 3.59,0 7.36,0.657 11.32,1.973 3.97,1.074 7.11,2.316 9.42,3.73 v -9.531"
         style="fill:#2056ae;fill-opacity:1;fill-rule:nonzero;stroke:none"
         transform="matrix(0.13333333,0,0,-0.13333333,0,69.44)" />
      <path
         id="path7"
         d="m 1215.37,426.602 c -0.1,-5.782 0.11,-11.758 0.63,-17.942 h -8.83 v 13.567 h -0.29 c -0.66,-1.653 -1.58,-3.329 -2.75,-5.028 -1.13,-1.808 -2.62,-3.508 -4.45,-5.109 -1.84,-1.504 -4.11,-2.695 -6.85,-3.574 -2.68,-1.114 -5.95,-1.68 -9.81,-1.68 -8.95,0.098 -15.39,2.891 -19.35,8.398 -3.95,5.391 -5.89,12.383 -5.79,20.938 v 48.683 h 9.03 v -46.32 c 0,-7.305 1.4,-13.008 4.18,-17.097 2.74,-4.387 7.2,-6.575 13.38,-6.575 4.15,0 7.67,0.899 10.54,2.696 2.93,1.711 5.15,3.898 6.66,6.582 1.74,2.773 2.95,5.761 3.6,8.984 0.72,3.164 1.07,6.348 1.07,9.57 v 42.16 h 9.03 v -58.253"
         style="fill:#2056ae;fill-opacity:1;fill-rule:nonzero;stroke:none"
         transform="matrix(0.13333333,0,0,-0.13333333,0,69.44)" />
      <path
         id="path8"
         d="m 1272.74,476.836 h -16.78 v -49.414 c 0,-3.496 0.77,-6.445 2.33,-8.84 1.42,-2.488 3.92,-3.719 7.51,-3.719 3.3,0 6.11,0.606 8.42,1.817 l 0.57,-7.742 c -1.08,-0.383 -2.58,-0.821 -4.52,-1.301 -2.02,-0.528 -4.23,-0.801 -6.63,-0.801 -3.95,0 -7.08,0.703 -9.38,2.117 -2.22,1.418 -3.89,3.254 -5.01,5.551 -0.99,2.383 -1.62,5.059 -1.91,8.027 -0.28,3.016 -0.43,6.278 -0.43,9.774 v 44.531 h -14.46 v 8.019 h 14.46 v 18.387 l 9.05,3.281 v -21.668 h 16.78 v -8.019"
         style="fill:#2056ae;fill-opacity:1;fill-rule:nonzero;stroke:none"
         transform="matrix(0.13333333,0,0,-0.13333333,0,69.44)" />
      <path
         id="path9"
         d="m 1285.12,419.688 c 5.6,-3.125 12,-4.727 19.21,-4.825 4.56,0 8.41,1.231 11.57,3.719 3.1,2.297 4.71,5.578 4.8,9.867 -0.09,4.531 -1.88,8.086 -5.37,10.672 -3.48,2.481 -7.59,4.719 -12.29,6.719 -2.22,1.074 -4.34,2.207 -6.36,3.437 -2.02,1.211 -3.96,2.551 -5.79,4.004 -1.65,1.621 -3.02,3.469 -4.1,5.567 -1.04,1.992 -1.56,4.328 -1.56,7.011 0.1,7.598 2.59,12.969 7.48,16.145 4.76,3.113 10.27,4.676 16.53,4.676 2.12,0 4.87,-0.196 8.26,-0.586 3.34,-0.574 6.65,-1.524 9.95,-2.821 l -0.85,-8.195 c -5.33,2.285 -10.8,3.477 -16.41,3.574 -4.72,0 -8.47,-0.879 -11.25,-2.625 -1.46,-0.929 -2.59,-2.199 -3.39,-3.8 -0.85,-1.563 -1.28,-3.653 -1.28,-6.289 0,-1.551 0.54,-3.047 1.63,-4.454 1.03,-1.308 2.42,-2.5 4.17,-3.574 1.75,-1.023 3.72,-2.07 5.94,-3.144 2.21,-1.024 4.38,-2.118 6.5,-3.282 4.81,-2.109 9,-4.902 12.59,-8.406 3.58,-3.508 5.42,-8.351 5.52,-14.543 0,-3.992 -0.79,-7.324 -2.33,-10.008 -1.65,-2.773 -3.72,-5.011 -6.21,-6.718 -5.41,-3.313 -11.14,-4.973 -17.21,-4.973 -7.1,0 -13.97,1.211 -20.59,3.613 l 0.84,9.239"
         style="fill:#2056ae;fill-opacity:1;fill-rule:nonzero;stroke:none"
         transform="matrix(0.13333333,0,0,-0.13333333,0,69.44)" />
      <path
         id="path10"
         d="m 1396.94,474.777 c -5.23,2.489 -10.5,3.778 -15.84,3.875 -8.86,-0.097 -15.65,-3.027 -20.37,-8.769 -4.95,-5.906 -7.42,-13.613 -7.42,-23.125 0,-8.875 2.43,-16.317 7.29,-22.313 4.71,-6.3 11.22,-9.484 19.52,-9.582 5.7,0 11.26,1.145 16.69,3.438 l 0.84,-8.789 c -5.98,-1.875 -12.29,-2.774 -18.93,-2.676 -11.86,0.242 -20.7,4.277 -26.49,12.109 -5.89,7.696 -8.83,16.965 -8.83,27.813 0.1,12.07 3.46,21.68 10.1,28.828 6.6,7.297 15.38,10.996 26.35,11.094 4.53,0 8.28,-0.34 11.3,-1.016 1.56,-0.293 2.9,-0.605 4.03,-0.937 1.08,-0.391 1.91,-0.723 2.47,-1.016 l -0.71,-8.934"
         style="fill:#2056ae;fill-opacity:1;fill-rule:nonzero;stroke:none"
         transform="matrix(0.13333333,0,0,-0.13333333,0,69.44)" />
      <path
         id="path11"
         d="m 1415.28,520.762 h 9.04 V 472.07 h 0.28 c 2.03,4.258 5.02,7.793 8.97,10.606 3.96,2.578 8.62,3.906 13.99,4.004 9.84,-0.098 16.55,-3.094 20.14,-8.985 3.48,-5.976 5.17,-13.789 5.07,-23.418 V 408.66 h -9.03 v 45.52 c 0,3.359 -0.19,6.554 -0.57,9.57 -0.42,2.871 -1.25,5.41 -2.48,7.598 -2.3,4.777 -7.15,7.207 -14.5,7.304 -7.93,-0.195 -13.59,-3.339 -16.99,-9.422 -3.35,-6.085 -4.98,-12.667 -4.88,-19.726 V 408.66 h -9.04 v 112.102"
         style="fill:#2056ae;fill-opacity:1;fill-rule:nonzero;stroke:none"
         transform="matrix(0.13333333,0,0,-0.13333333,0,69.44)" />
      <path
         id="path12"
         d="m 1543.43,452.07 c 0,7.012 -1.42,13.125 -4.25,18.36 -2.98,5.293 -7.87,8.027 -14.67,8.222 -6.66,-0.195 -11.92,-2.988 -15.8,-8.359 -3.96,-5.438 -5.95,-11.504 -5.95,-18.223 z m 4.42,-41.035 c -6.92,-2.707 -14.06,-4.101 -21.41,-4.199 -12.07,0.242 -20.72,4.082 -25.95,11.531 -5.19,7.297 -7.74,16.762 -7.64,28.391 0.1,11.875 2.99,21.484 8.69,28.828 5.51,7.297 12.98,10.996 22.41,11.094 10.31,-0.196 17.85,-3.946 22.6,-11.239 4.52,-7.16 6.79,-16.007 6.79,-26.562 v -4.816 h -50.58 c 0,-8.301 2.08,-15.125 6.23,-20.489 4.06,-5.722 10.1,-8.613 18.12,-8.711 3.59,0 7.36,0.657 11.33,1.973 3.96,1.074 7.11,2.316 9.41,3.73 v -9.531"
         style="fill:#2056ae;fill-opacity:1;fill-rule:nonzero;stroke:none"
         transform="matrix(0.13333333,0,0,-0.13333333,0,69.44)" />
      <path
         id="path13"
         d="m 983.176,333.594 h 48.004 v -8.895 h -38.094 v -37.304 h 36.324 v -8.887 h -36.324 v -49.199 h -9.91 v 104.285"
         style="fill:#2056ae;fill-opacity:1;fill-rule:nonzero;stroke:none"
         transform="matrix(0.13333333,0,0,-0.13333333,0,69.44)" />
      <path
         id="path14"
         d="m 1054.02,267.402 c 0,-9.074 2.13,-16.562 6.38,-22.461 4.06,-6.191 10.12,-9.343 18.15,-9.433 8.03,0.09 14.17,3.242 18.43,9.433 4.06,5.899 6.1,13.387 6.1,22.461 0,9.121 -2.04,16.711 -6.1,22.754 -4.26,5.996 -10.4,9.043 -18.43,9.141 -8.03,-0.098 -14.09,-3.145 -18.15,-9.141 -4.25,-6.043 -6.38,-13.633 -6.38,-22.754 z m -9.91,0 c 0,10.852 2.8,20.118 8.41,27.801 5.56,7.883 14.22,11.926 26,12.121 11.96,-0.195 20.74,-4.238 26.34,-12.121 5.42,-7.683 8.13,-16.949 8.13,-27.801 0,-10.656 -2.71,-19.871 -8.13,-27.656 -5.6,-7.93 -14.38,-12.019 -26.34,-12.266 -11.78,0.247 -20.44,4.336 -26,12.266 -5.61,7.785 -8.41,17 -8.41,27.656"
         style="fill:#2056ae;fill-opacity:1;fill-rule:nonzero;stroke:none"
         transform="matrix(0.13333333,0,0,-0.13333333,0,69.44)" />
      <path
         id="path15"
         d="m 1132.93,288.496 c 0,7.051 -0.19,12.715 -0.57,17 h 9.05 v -14.59 h 0.27 c 1.75,4.477 4.2,8.293 7.36,11.457 3.11,3.203 6.98,4.864 11.59,4.961 2.41,-0.097 4.53,-0.39 6.36,-0.871 v -9.781 c -2.02,0.586 -4.24,0.879 -6.64,0.879 -3.58,-0.102 -6.53,-0.996 -8.84,-2.707 -2.31,-1.797 -4.2,-4.239 -5.65,-7.305 -1.38,-3.016 -2.34,-6.258 -2.9,-9.715 -0.67,-3.703 -1,-7.304 -1,-10.812 v -37.703 h -9.03 v 59.187"
         style="fill:#2056ae;fill-opacity:1;fill-rule:nonzero;stroke:none"
         transform="matrix(0.13333333,0,0,-0.13333333,0,69.44)" />
      <path
         id="path16"
         d="m 1177.03,240.332 c 5.61,-3.125 12,-4.734 19.21,-4.824 4.56,0 8.42,1.238 11.57,3.722 3.11,2.286 4.71,5.575 4.81,9.864 -0.1,4.527 -1.89,8.086 -5.37,10.664 -3.49,2.488 -7.59,4.726 -12.3,6.726 -2.22,1.067 -4.33,2.215 -6.36,3.426 -2.02,1.223 -3.95,2.563 -5.79,4.028 -1.65,1.597 -3.01,3.457 -4.1,5.546 -1.03,2 -1.55,4.336 -1.55,7.02 0.1,7.598 2.59,12.98 7.48,16.144 4.75,3.114 10.26,4.676 16.52,4.676 2.12,0 4.88,-0.195 8.26,-0.586 3.34,-0.578 6.65,-1.523 9.96,-2.824 l -0.85,-8.191 c -5.34,2.285 -10.81,3.476 -16.42,3.574 -4.72,0 -8.47,-0.867 -11.25,-2.625 -1.46,-0.93 -2.59,-2.188 -3.39,-3.801 -0.85,-1.562 -1.28,-3.652 -1.28,-6.277 0,-1.563 0.55,-3.047 1.63,-4.465 1.04,-1.316 2.42,-2.512 4.17,-3.574 1.75,-1.024 3.72,-2.071 5.94,-3.145 2.22,-1.023 4.38,-2.121 6.5,-3.293 4.82,-2.086 9.01,-4.89 12.59,-8.394 3.59,-3.508 5.42,-8.36 5.52,-14.543 0,-3.992 -0.78,-7.332 -2.32,-10.008 -1.66,-2.774 -3.73,-5.02 -6.22,-6.723 -5.41,-3.308 -11.14,-4.969 -17.2,-4.969 -7.1,0 -13.98,1.204 -20.6,3.614 l 0.84,9.238"
         style="fill:#2056ae;fill-opacity:1;fill-rule:nonzero;stroke:none"
         transform="matrix(0.13333333,0,0,-0.13333333,0,69.44)" />
      <path
         id="path17"
         d="m 1288.86,295.422 c -5.24,2.488 -10.51,3.777 -15.84,3.875 -8.87,-0.098 -15.66,-3.016 -20.37,-8.777 -4.95,-5.903 -7.43,-13.606 -7.43,-23.118 0,-8.875 2.44,-16.32 7.29,-22.312 4.72,-6.289 11.22,-9.492 19.52,-9.582 5.7,0 11.26,1.144 16.69,3.437 l 0.84,-8.789 c -5.98,-1.875 -12.28,-2.773 -18.93,-2.676 -11.86,0.247 -20.7,4.29 -26.49,12.122 -5.89,7.683 -8.83,16.953 -8.83,27.8 0.1,12.063 3.46,21.672 10.1,28.828 6.6,7.297 15.38,10.997 26.36,11.094 4.52,0 8.28,-0.34 11.3,-1.015 1.55,-0.293 2.9,-0.606 4.02,-0.938 1.08,-0.391 1.91,-0.723 2.47,-1.016 l -0.7,-8.933"
         style="fill:#2056ae;fill-opacity:1;fill-rule:nonzero;stroke:none"
         transform="matrix(0.13333333,0,0,-0.13333333,0,69.44)" />
      <path
         id="path18"
         d="m 1307.2,341.406 h 9.03 v -48.691 h 0.28 c 2.03,4.269 5.02,7.805 8.98,10.605 3.95,2.571 8.61,3.907 13.98,4.004 9.85,-0.097 16.56,-3.094 20.14,-8.984 3.49,-5.977 5.18,-13.789 5.08,-23.418 v -45.613 h -9.04 v 45.515 c 0,3.36 -0.18,6.555 -0.56,9.571 -0.42,2.871 -1.25,5.41 -2.48,7.597 -2.31,4.778 -7.15,7.207 -14.5,7.305 -7.93,-0.195 -13.6,-3.328 -17,-9.426 -3.35,-6.082 -4.98,-12.664 -4.88,-19.723 v -40.839 h -9.03 v 112.097"
         style="fill:#2056ae;fill-opacity:1;fill-rule:nonzero;stroke:none"
         transform="matrix(0.13333333,0,0,-0.13333333,0,69.44)" />
      <path
         id="path19"
         d="m 1447.81,247.258 c -0.1,-5.793 0.11,-11.778 0.63,-17.949 h -8.83 v 13.562 h -0.28 c -0.67,-1.648 -1.59,-3.332 -2.76,-5.027 -1.13,-1.797 -2.61,-3.508 -4.45,-5.11 -1.84,-1.504 -4.11,-2.695 -6.85,-3.574 -2.68,-1.113 -5.95,-1.68 -9.81,-1.68 -8.95,0.098 -15.39,2.903 -19.35,8.399 -3.95,5.402 -5.89,12.375 -5.79,20.937 v 48.68 h 9.04 V 259.18 c 0,-7.313 1.39,-13.008 4.18,-17.102 2.73,-4.383 7.19,-6.57 13.37,-6.57 4.15,0 7.67,0.898 10.54,2.695 2.93,1.707 5.15,3.899 6.66,6.582 1.74,2.774 2.95,5.774 3.6,8.985 0.72,3.164 1.07,6.359 1.07,9.57 v 42.156 h 9.03 v -58.238"
         style="fill:#2056ae;fill-opacity:1;fill-rule:nonzero;stroke:none"
         transform="matrix(0.13333333,0,0,-0.13333333,0,69.44)" />
      <path
         id="path20"
         d="m 1473.45,287.629 c 0,5.828 -0.19,11.785 -0.57,17.867 h 8.82 v -13.562 h 0.28 c 0.84,1.796 1.86,3.593 3.03,5.39 1.13,1.809 2.57,3.43 4.31,4.895 1.83,1.601 4.09,2.871 6.77,3.789 2.73,0.879 5.95,1.316 9.66,1.316 9.08,-0.097 15.6,-2.898 19.54,-8.398 3.77,-5.352 5.65,-12.305 5.65,-20.867 v -48.75 h -9.04 v 46.394 c 0,7.254 -1.29,13.027 -3.89,17.317 -2.83,4.089 -7.38,6.179 -13.65,6.277 -8.12,-0.195 -13.83,-3.164 -17.13,-8.906 -1.7,-2.735 -2.9,-5.684 -3.62,-8.848 -0.75,-3.309 -1.13,-6.672 -1.13,-10.078 v -42.156 h -9.03 v 58.32"
         style="fill:#2056ae;fill-opacity:1;fill-rule:nonzero;stroke:none"
         transform="matrix(0.13333333,0,0,-0.13333333,0,69.44)" />
      <path
         id="path21"
         d="m 1562.1,267.402 c -0.11,-7.8 1.52,-14.636 4.88,-20.488 3.31,-6.199 8.79,-9.394 16.45,-9.59 8.22,0.196 14.05,3.489 17.51,9.883 3.3,6.191 4.96,12.922 4.96,20.195 0,9.512 -1.54,17.168 -4.61,22.969 -3.21,5.859 -8.98,8.828 -17.3,8.926 -4.34,0 -7.89,-0.945 -10.62,-2.852 -2.79,-1.757 -5.06,-4.238 -6.81,-7.461 -1.56,-2.976 -2.71,-6.367 -3.47,-10.164 -0.67,-3.808 -0.99,-7.621 -0.99,-11.418 z m 52.83,-31.828 c 0,-10.847 -2.55,-19.918 -7.64,-27.215 -5.32,-7.343 -14.29,-11.113 -26.91,-11.308 -4.85,0.097 -9.31,0.625 -13.36,1.594 -3.95,1.023 -6.95,1.812 -8.97,2.402 l 0.78,9.355 c 6.08,-3.363 13.33,-5.136 21.73,-5.332 5.9,0.094 10.51,1.192 13.87,3.282 3.49,1.992 6.06,4.785 7.72,8.378 1.74,3.594 2.85,7.723 3.32,12.391 0.39,4.668 0.57,9.688 0.57,15.086 h -0.29 c -5.22,-10.125 -12.69,-15.094 -22.4,-14.898 -11.59,0.293 -19.7,4.57 -24.31,12.839 -2.45,3.801 -4.15,7.883 -5.09,12.266 -1.18,4.375 -1.76,8.703 -1.76,12.988 -0.1,11.868 2.27,21.426 7.14,28.68 4.8,7.395 12.55,11.145 23.25,11.242 4.84,0 9.11,-0.554 12.78,-1.668 3.54,-1.359 6.95,-4.25 10.26,-8.691 h 0.28 v 8.555 l 9.03,-0.024 v -69.922"
         style="fill:#2056ae;fill-opacity:1;fill-rule:nonzero;stroke:none"
         transform="matrix(0.13333333,0,0,-0.13333333,0,69.44)" />
      <path
         id="path22"
         d="m 1634.02,240.332 c 5.61,-3.125 12.01,-4.734 19.21,-4.824 4.56,0 8.42,1.238 11.57,3.722 3.11,2.286 4.71,5.575 4.81,9.864 -0.1,4.527 -1.89,8.086 -5.37,10.664 -3.49,2.488 -7.59,4.726 -12.3,6.726 -2.21,1.067 -4.33,2.215 -6.35,3.426 -2.03,1.223 -3.96,2.563 -5.8,4.028 -1.65,1.597 -3.01,3.457 -4.1,5.546 -1.03,2 -1.55,4.336 -1.55,7.02 0.1,7.598 2.59,12.98 7.48,16.144 4.76,3.114 10.26,4.676 16.52,4.676 2.12,0 4.88,-0.195 8.27,-0.586 3.34,-0.578 6.65,-1.523 9.95,-2.824 l -0.85,-8.191 c -5.33,2.285 -10.8,3.476 -16.42,3.574 -4.71,0 -8.46,-0.867 -11.25,-2.625 -1.45,-0.93 -2.59,-2.188 -3.39,-3.801 -0.85,-1.562 -1.28,-3.652 -1.28,-6.277 0,-1.563 0.55,-3.047 1.63,-4.465 1.04,-1.316 2.43,-2.512 4.17,-3.574 1.75,-1.024 3.73,-2.071 5.94,-3.145 2.22,-1.023 4.39,-2.121 6.51,-3.293 4.81,-2.086 9,-4.89 12.58,-8.394 3.59,-3.508 5.42,-8.36 5.52,-14.543 0,-3.992 -0.78,-7.332 -2.32,-10.008 -1.65,-2.774 -3.72,-5.02 -6.21,-6.723 -5.41,-3.308 -11.15,-4.969 -17.21,-4.969 -7.1,0 -13.98,1.204 -20.6,3.614 l 0.84,9.238"
         style="fill:#2056ae;fill-opacity:1;fill-rule:nonzero;stroke:none"
         transform="matrix(0.13333333,0,0,-0.13333333,0,69.44)" />
      <path
         id="path23"
         d="m 1703.39,267.402 c -0.11,-7.8 1.52,-14.636 4.88,-20.488 3.31,-6.199 8.79,-9.394 16.45,-9.59 8.22,0.196 14.05,3.489 17.51,9.883 3.3,6.191 4.96,12.922 4.96,20.195 0,9.512 -1.55,17.168 -4.61,22.969 -3.21,5.859 -8.98,8.828 -17.3,8.926 -4.34,0 -7.89,-0.945 -10.62,-2.852 -2.79,-1.757 -5.06,-4.238 -6.81,-7.461 -1.56,-2.976 -2.71,-6.367 -3.47,-10.164 -0.67,-3.808 -0.99,-7.621 -0.99,-11.418 z m 52.83,-31.828 c 0,-10.847 -2.55,-19.918 -7.64,-27.215 -5.32,-7.343 -14.29,-11.113 -26.91,-11.308 -4.85,0.097 -9.31,0.625 -13.36,1.594 -3.95,1.023 -6.95,1.812 -8.97,2.402 l 0.78,9.355 c 6.08,-3.363 13.33,-5.136 21.73,-5.332 5.89,0.094 10.51,1.192 13.87,3.282 3.49,1.992 6.06,4.785 7.72,8.378 1.74,3.594 2.85,7.723 3.32,12.391 0.39,4.668 0.57,9.688 0.57,15.086 h -0.29 c -5.22,-10.125 -12.69,-15.094 -22.4,-14.898 -11.59,0.293 -19.7,4.57 -24.31,12.839 -2.45,3.801 -4.15,7.883 -5.1,12.266 -1.17,4.375 -1.75,8.703 -1.75,12.988 -0.1,11.868 2.27,21.426 7.14,28.68 4.8,7.395 12.54,11.145 23.25,11.242 4.84,0 9.11,-0.554 12.78,-1.668 3.54,-1.359 6.95,-4.25 10.25,-8.691 h 0.29 v 8.555 l 9.03,-0.024 v -69.922"
         style="fill:#2056ae;fill-opacity:1;fill-rule:nonzero;stroke:none"
         transform="matrix(0.13333333,0,0,-0.13333333,0,69.44)" />
      <path
         id="path24"
         d="m 1826.01,272.727 c 0,6.992 -1.42,13.113 -4.25,18.347 -2.98,5.293 -7.87,8.028 -14.67,8.223 -6.66,-0.195 -11.92,-2.977 -15.8,-8.367 -3.97,-5.434 -5.95,-11.504 -5.95,-18.203 z m 4.42,-41.055 c -6.92,-2.695 -14.06,-4.094 -21.42,-4.192 -12.07,0.247 -20.71,4.094 -25.94,11.536 -5.19,7.293 -7.74,16.757 -7.64,28.386 0.1,11.868 2.99,21.477 8.69,28.828 5.51,7.297 12.98,10.997 22.4,11.094 10.32,-0.195 17.86,-3.945 22.61,-11.242 4.52,-7.144 6.79,-16.004 6.79,-26.559 v -4.816 h -50.58 c 0,-8.293 2.08,-15.129 6.23,-20.5 4.06,-5.699 10.1,-8.609 18.12,-8.699 3.59,0 7.36,0.652 11.33,1.972 3.96,1.075 7.11,2.317 9.41,3.731 v -9.539"
         style="fill:#2056ae;fill-opacity:1;fill-rule:nonzero;stroke:none"
         transform="matrix(0.13333333,0,0,-0.13333333,0,69.44)" />
      <path
         id="path25"
         d="m 1946.27,229.309 v 50.703 c 0,2.82 -0.2,5.429 -0.59,7.82 -0.59,2.285 -1.55,4.285 -2.88,5.988 -1.18,1.754 -2.82,3.145 -4.94,4.168 -2.11,0.871 -4.74,1.309 -7.89,1.309 -5.3,0 -10.03,-2.188 -14.15,-6.57 -4.23,-4.582 -6.4,-11.672 -6.49,-21.262 v -42.156 h -9.04 v 50.703 c 0,2.82 -0.22,5.429 -0.66,7.82 -0.59,2.285 -1.55,4.285 -2.87,5.988 -1.18,1.754 -2.83,3.145 -4.94,4.168 -2.12,0.871 -4.75,1.309 -7.89,1.309 -5.32,0 -10.03,-2.188 -14.16,-6.57 -4.23,-4.582 -6.39,-11.672 -6.49,-21.262 v -42.156 h -9.05 v 58.308 c 0,5.84 -0.19,11.797 -0.57,17.879 h 9.09 v -12.848 l 0.29,-0.136 c 0.68,1.402 1.63,2.957 2.84,4.668 0.97,1.699 2.35,3.277 4.14,4.746 1.8,1.504 4.02,2.82 6.69,3.933 2.67,0.977 5.99,1.465 9.96,1.465 1.8,0 3.74,-0.195 5.82,-0.586 1.99,-0.39 3.97,-1.191 5.97,-2.402 1.98,-1.113 3.73,-2.715 5.23,-4.797 1.46,-2.176 2.5,-4.937 3.13,-8.289 h 0.29 c 1.88,4.563 4.92,8.359 9.09,11.414 4.07,3.012 9.13,4.563 15.2,4.66 7.7,-0.097 13.64,-2.48 17.81,-7.16 4.07,-4.617 6.11,-10.75 6.11,-18.387 v -52.468 h -9.05"
         style="fill:#2056ae;fill-opacity:1;fill-rule:nonzero;stroke:none"
         transform="matrix(0.13333333,0,0,-0.13333333,0,69.44)" />
      <path
         id="path26"
         d="m 2025.23,272.727 c 0,6.992 -1.41,13.113 -4.24,18.347 -2.98,5.293 -7.87,8.028 -14.67,8.223 -6.66,-0.195 -11.93,-2.977 -15.8,-8.367 -3.97,-5.434 -5.95,-11.504 -5.95,-18.203 z m 4.43,-41.055 c -6.93,-2.695 -14.06,-4.094 -21.42,-4.192 -12.07,0.247 -20.71,4.094 -25.95,11.536 -5.18,7.293 -7.73,16.757 -7.63,28.386 0.1,11.868 2.99,21.477 8.69,28.828 5.51,7.297 12.98,10.997 22.4,11.094 10.31,-0.195 17.85,-3.945 22.61,-11.242 4.52,-7.144 6.79,-16.004 6.79,-26.559 v -4.816 h -50.58 c 0,-8.293 2.08,-15.129 6.23,-20.5 4.05,-5.699 10.1,-8.609 18.12,-8.699 3.59,0 7.36,0.652 11.32,1.972 3.97,1.075 7.11,2.317 9.42,3.731 v -9.539"
         style="fill:#2056ae;fill-opacity:1;fill-rule:nonzero;stroke:none"
         transform="matrix(0.13333333,0,0,-0.13333333,0,69.44)" />
      <path
         id="path27"
         d="m 2054.94,305.496 h 9.03 v -76.187 h -9.03 z m 9.03,20.363 h -9.03 v 12.539 h 9.03 v -12.539"
         style="fill:#2056ae;fill-opacity:1;fill-rule:nonzero;stroke:none"
         transform="matrix(0.13333333,0,0,-0.13333333,0,69.44)" />
      <path
         id="path28"
         d="m 2088.14,287.629 c 0,5.828 -0.18,11.785 -0.56,17.867 h 8.82 v -13.562 h 0.28 c 0.84,1.796 1.86,3.593 3.03,5.39 1.13,1.809 2.57,3.43 4.3,4.895 1.84,1.601 4.1,2.871 6.78,3.789 2.73,0.879 5.95,1.316 9.66,1.316 9.08,-0.097 15.59,-2.898 19.54,-8.398 3.77,-5.352 5.64,-12.305 5.64,-20.867 v -48.75 h -9.03 v 46.394 c 0,7.254 -1.3,13.027 -3.89,17.317 -2.84,4.089 -7.39,6.179 -13.66,6.277 -8.11,-0.195 -13.83,-3.164 -17.13,-8.906 -1.7,-2.735 -2.9,-5.684 -3.61,-8.848 -0.75,-3.309 -1.13,-6.672 -1.13,-10.078 v -42.156 h -9.04 v 58.32"
         style="fill:#2056ae;fill-opacity:1;fill-rule:nonzero;stroke:none"
         transform="matrix(0.13333333,0,0,-0.13333333,0,69.44)" />
      <path
         id="path29"
         d="m 2165.61,240.332 c 5.6,-3.125 12,-4.734 19.2,-4.824 4.57,0 8.42,1.238 11.58,3.722 3.1,2.286 4.7,5.575 4.8,9.864 -0.1,4.527 -1.88,8.086 -5.37,10.664 -3.49,2.488 -7.59,4.726 -12.29,6.726 -2.22,1.067 -4.34,2.215 -6.36,3.426 -2.02,1.223 -3.96,2.563 -5.79,4.028 -1.65,1.597 -3.02,3.457 -4.1,5.546 -1.04,2 -1.56,4.336 -1.56,7.02 0.1,7.598 2.59,12.98 7.48,16.144 4.76,3.114 10.27,4.676 16.53,4.676 2.12,0 4.87,-0.195 8.26,-0.586 3.34,-0.578 6.65,-1.523 9.95,-2.824 l -0.85,-8.191 c -5.33,2.285 -10.8,3.476 -16.42,3.574 -4.71,0 -8.46,-0.867 -11.25,-2.625 -1.45,-0.93 -2.58,-2.188 -3.38,-3.801 -0.85,-1.562 -1.28,-3.652 -1.28,-6.277 0,-1.563 0.54,-3.047 1.63,-4.465 1.03,-1.316 2.42,-2.512 4.17,-3.574 1.74,-1.024 3.72,-2.071 5.93,-3.145 2.22,-1.023 4.39,-2.121 6.51,-3.293 4.81,-2.086 9,-4.89 12.59,-8.394 3.58,-3.508 5.42,-8.36 5.51,-14.543 0,-3.992 -0.78,-7.332 -2.32,-10.008 -1.65,-2.774 -3.72,-5.02 -6.21,-6.723 -5.41,-3.308 -11.14,-4.969 -17.21,-4.969 -7.1,0 -13.97,1.204 -20.59,3.614 l 0.84,9.238"
         style="fill:#2056ae;fill-opacity:1;fill-rule:nonzero;stroke:none"
         transform="matrix(0.13333333,0,0,-0.13333333,0,69.44)" />
      <path
         id="path30"
         d="m 2277.43,295.422 c -5.23,2.488 -10.51,3.777 -15.84,3.875 -8.87,-0.098 -15.65,-3.016 -20.37,-8.777 -4.95,-5.903 -7.42,-13.606 -7.42,-23.118 0,-8.875 2.43,-16.32 7.28,-22.312 4.72,-6.289 11.22,-9.492 19.53,-9.582 5.7,0 11.26,1.144 16.68,3.437 l 0.84,-8.789 c -5.97,-1.875 -12.28,-2.773 -18.92,-2.676 -11.87,0.247 -20.7,4.29 -26.5,12.122 -5.88,7.683 -8.82,16.953 -8.82,27.8 0.09,12.063 3.45,21.672 10.09,28.828 6.61,7.297 15.39,10.997 26.36,11.094 4.52,0 8.28,-0.34 11.3,-1.015 1.55,-0.293 2.9,-0.606 4.02,-0.938 1.09,-0.391 1.92,-0.723 2.47,-1.016 l -0.7,-8.933"
         style="fill:#2056ae;fill-opacity:1;fill-rule:nonzero;stroke:none"
         transform="matrix(0.13333333,0,0,-0.13333333,0,69.44)" />
      <path
         id="path31"
         d="m 2295.76,341.406 h 9.03 v -48.691 h 0.29 c 2.03,4.269 5.02,7.805 8.97,10.605 3.96,2.571 8.62,3.907 13.99,4.004 9.84,-0.097 16.55,-3.094 20.13,-8.984 3.49,-5.977 5.18,-13.789 5.08,-23.418 v -45.613 h -9.03 v 45.515 c 0,3.36 -0.19,6.555 -0.57,9.571 -0.42,2.871 -1.25,5.41 -2.48,7.597 -2.3,4.778 -7.15,7.207 -14.5,7.305 -7.93,-0.195 -13.59,-3.328 -16.99,-9.426 -3.35,-6.082 -4.98,-12.664 -4.89,-19.723 v -40.839 h -9.03 v 112.097"
         style="fill:#2056ae;fill-opacity:1;fill-rule:nonzero;stroke:none"
         transform="matrix(0.13333333,0,0,-0.13333333,0,69.44)" />
      <path
         id="path32"
         d="m 2420.41,267.703 h -2.62 c -3.96,0 -7.93,-0.105 -11.89,-0.301 -4.15,-0.379 -7.93,-1.242 -11.33,-2.558 -3.4,-1.172 -6.11,-2.996 -8.13,-5.489 -2.23,-2.539 -3.33,-5.898 -3.33,-10.097 0,-4.871 1.55,-8.367 4.66,-10.457 2.88,-2.199 6.45,-3.293 10.7,-3.293 5.33,0 9.53,1.094 12.59,3.293 3.03,2.09 5.22,4.578 6.59,7.461 1.41,3.125 2.22,6.172 2.41,9.148 0.23,3.117 0.35,5.684 0.35,7.676 z m 0.84,-26.199 h -0.28 c -2.12,-4.453 -5.37,-7.871 -9.75,-10.242 -4.34,-2.422 -8.91,-3.684 -13.71,-3.782 -5.14,0.098 -9.29,0.95 -12.44,2.551 -3.3,1.5 -5.82,3.399 -7.56,5.684 -3.08,4.949 -4.51,9.375 -4.32,13.262 0,6.367 1.49,11.386 4.46,15.078 2.92,3.687 6.64,6.336 11.17,7.949 4.52,1.648 9.44,2.742 14.76,3.269 5.24,0.293 10.26,0.442 15.06,0.442 h 1.77 v 3.894 c 0.29,13.125 -5.32,19.688 -16.85,19.688 -7.63,0.098 -14.88,-2 -21.72,-6.317 v 9.137 c 6.83,3.274 14.06,5.012 21.69,5.207 17.47,0.188 26.11,-9.265 25.91,-28.386 v -33.645 c -0.14,-5.789 0.11,-11.121 0.77,-15.984 h -8.96 v 12.195"
         style="fill:#2056ae;fill-opacity:1;fill-rule:nonzero;stroke:none"
         transform="matrix(0.13333333,0,0,-0.13333333,0,69.44)" />
      <path
         id="path33"
         d="m 2459.82,297.473 h -14.9 v 8.023 h 14.9 v 5.551 c 0,4.082 0.19,8.074 0.57,11.961 0.19,3.801 0.92,7.18 2.19,10.148 1.22,3.114 3.19,5.567 5.93,7.371 2.57,1.75 6.18,2.629 10.79,2.629 1.55,0 3.14,-0.051 4.79,-0.148 1.65,-0.293 2.89,-0.731 3.74,-1.309 l -0.56,-8.242 c -2.04,1.113 -4.44,1.68 -7.22,1.68 -3.03,0 -5.31,-0.711 -6.87,-2.117 -1.66,-1.614 -2.76,-3.555 -3.33,-5.84 -0.56,-2.285 -0.85,-4.731 -0.85,-7.309 -0.09,-2.672 -0.14,-5.254 -0.14,-7.73 v -6.645 h 16.64 v -8.023 h -16.64 v -68.164 h -9.04 v 68.164"
         style="fill:#2056ae;fill-opacity:1;fill-rule:nonzero;stroke:none"
         transform="matrix(0.13333333,0,0,-0.13333333,0,69.44)" />
      <path
         id="path34"
         d="m 2535.13,297.473 h -16.79 v -49.399 c 0,-3.511 0.77,-6.453 2.33,-8.844 1.42,-2.484 3.92,-3.722 7.51,-3.722 3.3,0 6.12,0.605 8.42,1.824 l 0.57,-7.754 c -1.08,-0.387 -2.58,-0.816 -4.51,-1.297 -2.03,-0.539 -4.24,-0.801 -6.63,-0.801 -3.96,0 -7.08,0.704 -9.39,2.122 -2.22,1.406 -3.89,3.261 -5.01,5.546 -0.99,2.383 -1.62,5.055 -1.9,8.028 -0.29,3.015 -0.43,6.277 -0.43,9.773 v 44.524 h -14.47 v 8.023 h 14.47 v 18.391 l 9.04,3.281 v -21.672 h 16.79 v -8.023"
         style="fill:#2056ae;fill-opacity:1;fill-rule:nonzero;stroke:none"
         transform="matrix(0.13333333,0,0,-0.13333333,0,69.44)" />
      <path
         id="path35"
         d="M 6.0244516,-3.5034381 H 4.2783578 v -0.65625 h 2.4726563 v 3.82031247 C 6.0127328,-0.02296938 5.2392953,0.14109312 4.4307016,0.12937437 3.2588266,0.10593687 2.3447641,-0.25734438 1.6885141,-0.97218813 1.0205453,-1.6870319 0.68070156,-2.6362506 0.68070156,-3.8432819 0.69242031,-5.0268756 1.0205453,-5.9878131 1.7002328,-6.7143756 c 0.65625,-0.7148438 1.5703125,-1.0898438 2.7304688,-1.1015625 0.3164062,0 0.65625,0.023437 1.0429687,0.082031 0.375,0.058594 0.6914063,0.1523438 0.9492188,0.28125 l -0.082031,0.703125 c -0.292969,-0.1640623 -0.5976565,-0.269531 -0.9140628,-0.3398435 -0.328125,-0.035156 -0.65625,-0.058594 -0.9960937,-0.058594 -0.9609375,0.011719 -1.7109375,0.328125 -2.2265625,0.9257813 -0.5273438,0.609375 -0.796875,1.40625 -0.796875,2.3789062 0,0.984375 0.2695312,1.7695313 0.7851562,2.3789063 0.515625,0.62109372 1.265625,0.92578122 2.2382813,0.93749997 0.2578125,0 0.5390625,-0.0234375 0.8554687,-0.0703125 0.3046875,-0.0351563 0.5507813,-0.09375 0.7382813,-0.2109375 z m 6.4072264,3.32812497 c -0.515625,0.19921875 -1.03125,0.29296875 -1.582031,0.3046875 -0.8789064,-0.0234375 -1.5234376,-0.29296875 -1.9101564,-0.84375 -0.375,-0.53906247 -0.5625,-1.23046877 -0.5507812,-2.08593747 0,-0.8789063 0.2109375,-1.59375 0.6328125,-2.1328125 0.4101562,-0.5390625 0.9609375,-0.796875 1.6523441,-0.8085938 0.761718,0.011719 1.3125,0.28125 1.664062,0.8203125 0.328125,0.5273438 0.492188,1.1835938 0.492188,1.9570313 v 0.3515625 H 9.1152719 c 0,0.609375 0.1523437,1.1132812 0.4570312,1.5117187 0.2929688,0.42187502 0.7382809,0.63281252 1.3359379,0.64453127 0.257812,0 0.539062,-0.046875 0.832031,-0.15234375 0.28125,-0.0703125 0.515625,-0.17578125 0.691406,-0.26953125 z M 12.103553,-3.1987506 c 0,-0.515625 -0.105469,-0.9609375 -0.304687,-1.3476563 -0.222657,-0.3984375 -0.585938,-0.5976562 -1.089844,-0.5976562 -0.492188,0 -0.8671876,0.2109375 -1.1601564,0.609375 -0.2929687,0.3984375 -0.4335937,0.8320312 -0.4335937,1.3359375 z m 2.173828,-1.1601563 c 0,-0.515625 -0.01172,-0.9375 -0.03516,-1.2539062 h 0.667969 v 1.078125 h 0.02344 c 0.128906,-0.328125 0.304688,-0.609375 0.539063,-0.84375 0.222656,-0.234375 0.515625,-0.3515625 0.855468,-0.3632813 0.175782,0.011719 0.328125,0.035156 0.457032,0.058594 v 0.7265625 c -0.140625,-0.046875 -0.304688,-0.070312 -0.480469,-0.070312 -0.257813,0.011719 -0.480469,0.070312 -0.644531,0.1992187 -0.175782,0.1289063 -0.316407,0.3046875 -0.421875,0.5390625 -0.09375,0.2226563 -0.175782,0.4570313 -0.210938,0.7148438 -0.04687,0.2695312 -0.07031,0.5390625 -0.07031,0.7851562 V 4.68125e-4 H 14.277381 Z M 24.619178,4.68125e-4 V -3.7260944 c 0,-0.2109375 -0.01172,-0.3984375 -0.03516,-0.5742187 -0.04687,-0.1757813 -0.117188,-0.3164063 -0.210938,-0.4453125 -0.09375,-0.1289063 -0.210937,-0.2226563 -0.363281,-0.3046875 -0.152344,-0.070312 -0.351562,-0.09375 -0.585937,-0.09375 -0.386719,0 -0.738282,0.1640625 -1.042969,0.4804687 -0.316406,0.328125 -0.46875,0.8554688 -0.480469,1.5585938 V 4.68125e-4 H 21.232459 V -3.7260944 c 0,-0.2109375 -0.01172,-0.3984375 -0.04687,-0.5742187 -0.03516,-0.1757813 -0.117187,-0.3164063 -0.210937,-0.4453125 -0.08203,-0.1289063 -0.199219,-0.2226563 -0.363281,-0.3046875 -0.164063,-0.070312 -0.351563,-0.09375 -0.574219,-0.09375 -0.398438,0 -0.738281,0.1640625 -1.042969,0.4804687 -0.316406,0.328125 -0.46875,0.8554688 -0.480469,1.5585938 V 4.68125e-4 H 17.845741 V -4.2885944 c 0,-0.4335937 -0.01172,-0.8671875 -0.04687,-1.3242187 h 0.667968 v 0.9492187 l 0.02344,0.011719 c 0.05859,-0.1171875 0.128906,-0.2226563 0.210937,-0.3398438 0.07031,-0.140625 0.175782,-0.2460937 0.304688,-0.3515625 0.140625,-0.1171875 0.304687,-0.2109375 0.503906,-0.2929687 0.1875,-0.070312 0.433594,-0.1054688 0.726563,-0.1054688 0.128906,0 0.269531,0.011719 0.421875,0.046875 0.152343,0.011719 0.304687,0.082031 0.445312,0.1757813 0.152344,0.070312 0.269531,0.1992187 0.386719,0.3515625 0.105469,0.1640625 0.1875,0.3632812 0.222656,0.609375 h 0.02344 c 0.152343,-0.3398438 0.363281,-0.609375 0.679687,-0.84375 0.292969,-0.2226563 0.667969,-0.328125 1.113281,-0.3398438 0.5625,0.011719 1.007813,0.1875 1.3125,0.5273438 0.292969,0.3398437 0.457032,0.796875 0.457032,1.3476562 V 4.68125e-4 Z m 5.613281,-0.902343755 h -0.02344 c -0.152344,0.328125 -0.398438,0.5859375 -0.714844,0.76171875 -0.316406,0.17578125 -0.65625,0.2578125 -1.007812,0.26953125 -0.375,-0.0117187 -0.679688,-0.05859375 -0.914063,-0.1875 -0.246094,-0.10546875 -0.433594,-0.24609375 -0.550781,-0.41015625 -0.234375,-0.36328125 -0.328125,-0.70312502 -0.316406,-0.98437502 0,-0.4570312 0.105468,-0.8320312 0.328125,-1.1132812 0.210937,-0.2695313 0.480468,-0.4570313 0.808593,-0.5859375 0.328125,-0.1171875 0.691407,-0.1875 1.089844,-0.234375 0.386719,-0.023437 0.75,-0.035156 1.101563,-0.035156 h 0.128906 v -0.28125 c 0.02344,-0.9609375 -0.375,-1.4414062 -1.230469,-1.4414062 -0.5625,-0.011719 -1.101562,0.140625 -1.59375,0.4570312 v -0.6679687 c 0.492188,-0.2460938 1.03125,-0.375 1.59375,-0.3867188 1.277344,-0.011719 1.921875,0.6796875 1.910156,2.0859375 v 2.484375 c -0.01172,0.42187502 0.01172,0.80859377 0.04687,1.171875025 h -0.65625 z m -0.07031,-1.92187497 h -0.1875 c -0.292969,0 -0.574219,0.011719 -0.878906,0.023437 -0.304688,0.011719 -0.574219,0.082031 -0.820313,0.1875 -0.257812,0.082031 -0.457031,0.2109375 -0.609375,0.3984375 -0.164062,0.1875 -0.234375,0.4335937 -0.234375,0.7382812 0,0.3632813 0.105469,0.62109377 0.339844,0.77343752 0.210937,0.1640625 0.46875,0.24609375 0.785156,0.24609375 0.386719,0 0.691406,-0.0820313 0.925781,-0.24609375 0.222657,-0.15234375 0.386719,-0.33984372 0.492188,-0.55078122 0.09375,-0.234375 0.152344,-0.4570313 0.175781,-0.6679688 0,-0.234375 0.01172,-0.421875 0.01172,-0.5625 z m 2.44043,-1.4648438 c 0,-0.4335937 -0.01172,-0.8671875 -0.03516,-1.3242187 h 0.644532 v 1.0078125 h 0.02344 c 0.07031,-0.140625 0.140625,-0.2695313 0.234375,-0.3984375 0.07031,-0.140625 0.1875,-0.2578125 0.316406,-0.3632813 0.128907,-0.1289062 0.292969,-0.2109375 0.492188,-0.28125 0.199219,-0.058594 0.445312,-0.09375 0.714844,-0.09375 0.667968,0.011719 1.160156,0.2109375 1.441406,0.609375 0.28125,0.3984375 0.421875,0.9140625 0.421875,1.546875 V 4.68125e-4 H 36.188514 V -3.4096881 c 0,-0.5390625 -0.105469,-0.9609375 -0.292969,-1.2773438 -0.210937,-0.2929687 -0.539062,-0.4570312 -1.007812,-0.4570312 -0.597656,0 -1.019531,0.2226562 -1.253906,0.65625 -0.140625,0.1992187 -0.222657,0.4101562 -0.269532,0.6445312 -0.05859,0.2460938 -0.08203,0.4921875 -0.08203,0.7382813 V 4.68125e-4 h -0.679687 z m 10.016601,0.011719 h 0.773438 c 0.46875,0.011719 0.890625,-0.1054688 1.265625,-0.3164063 0.386718,-0.1992187 0.585937,-0.5625 0.597656,-1.0898437 0,-0.328125 -0.04687,-0.5625 -0.140625,-0.75 -0.105469,-0.1757813 -0.246094,-0.328125 -0.410156,-0.3984375 -0.175782,-0.09375 -0.375,-0.140625 -0.609375,-0.1640625 -0.222657,-0.011719 -0.46875,-0.023437 -0.714844,-0.023437 H 42.61918 Z m -0.726562,-3.3984375 h 1.910156 c 1.40625,-0.023437 2.132812,0.6328125 2.179687,1.9921875 -0.01172,0.4921875 -0.164062,0.9023437 -0.480468,1.1953125 -0.316407,0.3046875 -0.691407,0.4921875 -1.171875,0.5742187 v 0.023437 c 0.292968,0.023437 0.492187,0.1289063 0.632812,0.28125 0.05859,0.082031 0.117188,0.1640625 0.175781,0.2695313 0.04687,0.1171875 0.105469,0.234375 0.164063,0.3632812 L 46.556678,4.68125e-4 H 45.748084 L 44.669959,-2.6010944 c -0.199218,-0.46875 -0.398437,-0.7617187 -0.609375,-0.890625 -0.117187,-0.058594 -0.234375,-0.1054687 -0.375,-0.1171875 -0.128906,-0.011719 -0.292968,-0.011719 -0.46875,-0.011719 H 42.619178 V 4.68125e-4 h -0.726562 z m 9.65625,7.49999997 c -0.515625,0.19921875 -1.03125,0.29296875 -1.582032,0.3046875 -0.878906,-0.0234375 -1.523437,-0.29296875 -1.910156,-0.84375 -0.375,-0.53906247 -0.5625,-1.23046877 -0.550781,-2.08593747 0,-0.8789063 0.210937,-1.59375 0.632812,-2.1328125 0.410157,-0.5390625 0.960938,-0.796875 1.652344,-0.8085938 0.761719,0.011719 1.3125,0.28125 1.664063,0.8203125 0.328125,0.5273438 0.492187,1.1835938 0.492187,1.9570313 v 0.3515625 h -3.714844 c 0,0.609375 0.152344,1.1132812 0.457032,1.5117187 0.292968,0.42187502 0.738281,0.63281252 1.335937,0.64453127 0.257813,0 0.539063,-0.046875 0.832031,-0.15234375 0.28125,-0.0703125 0.515625,-0.17578125 0.691407,-0.26953125 z M 51.220741,-3.1987506 c 0,-0.515625 -0.105469,-0.9609375 -0.304688,-1.3476563 -0.222656,-0.3984375 -0.585937,-0.5976562 -1.089844,-0.5976562 -0.492187,0 -0.867187,0.2109375 -1.160156,0.609375 -0.292969,0.3984375 -0.433594,0.8320312 -0.433594,1.3359375 z m 1.763671,2.39062497 c 0.410157,0.22265625 0.890625,0.33984375 1.417969,0.3515625 0.339844,0 0.621094,-0.09375 0.855469,-0.28125 0.234375,-0.1640625 0.339844,-0.41015627 0.351562,-0.72656247 -0.01172,-0.328125 -0.140625,-0.5976563 -0.398437,-0.7851563 -0.246094,-0.1875 -0.5625,-0.3515625 -0.902344,-0.4921875 -0.164062,-0.070312 -0.328125,-0.1640625 -0.46875,-0.2460937 -0.152344,-0.09375 -0.292969,-0.1875 -0.433594,-0.3046875 -0.117187,-0.1171875 -0.210937,-0.2460938 -0.292968,-0.4101563 -0.08203,-0.140625 -0.117188,-0.3164062 -0.117188,-0.515625 0.01172,-0.5625 0.1875,-0.9492187 0.550781,-1.1835937 0.351563,-0.234375 0.75,-0.3398438 1.21875,-0.3398438 0.152344,0 0.363282,0.011719 0.597657,0.046875 0.257812,0.035156 0.503906,0.1054688 0.738281,0.1992188 l -0.05859,0.5976562 c -0.386719,-0.1640625 -0.796875,-0.2460937 -1.21875,-0.2460937 -0.339844,0 -0.609375,0.058594 -0.820312,0.1875 -0.105469,0.070312 -0.1875,0.1640625 -0.257813,0.28125 -0.04687,0.1054687 -0.08203,0.2578125 -0.08203,0.4570312 0,0.1171875 0.04687,0.2226563 0.117187,0.3398438 0.08203,0.082031 0.175782,0.1757812 0.316407,0.2578125 0.117187,0.070312 0.269531,0.140625 0.421875,0.234375 0.164062,0.058594 0.328125,0.1523437 0.480468,0.234375 0.363282,0.1640625 0.667969,0.3515625 0.925782,0.6210937 0.269531,0.2578125 0.398437,0.6210938 0.410156,1.0664063 0,0.2929687 -0.05859,0.53906247 -0.175781,0.73828122 -0.117188,0.19921875 -0.269532,0.36328125 -0.445313,0.4921875 -0.398437,0.24609375 -0.832031,0.36328125 -1.265625,0.36328125 -0.539062,0 -1.042969,-0.08203125 -1.523437,-0.2578125 z m 8.34668,0.6328125 c -0.515625,0.19921875 -1.03125,0.29296875 -1.582031,0.3046875 -0.878906,-0.0234375 -1.523438,-0.29296875 -1.910156,-0.84375 -0.375,-0.53906247 -0.5625,-1.23046877 -0.550782,-2.08593747 0,-0.8789063 0.210938,-1.59375 0.632813,-2.1328125 0.410156,-0.5390625 0.960937,-0.796875 1.652344,-0.8085938 0.761718,0.011719 1.3125,0.28125 1.664062,0.8203125 0.328125,0.5273438 0.492188,1.1835938 0.492188,1.9570313 v 0.3515625 h -3.714844 c 0,0.609375 0.152344,1.1132812 0.457031,1.5117187 0.292969,0.42187502 0.738281,0.63281252 1.335938,0.64453127 0.257812,0 0.539062,-0.046875 0.832031,-0.15234375 0.28125,-0.0703125 0.515625,-0.17578125 0.691406,-0.26953125 z M 61.002967,-3.1987506 c 0,-0.515625 -0.105469,-0.9609375 -0.304687,-1.3476563 -0.222657,-0.3984375 -0.585938,-0.5976562 -1.089844,-0.5976562 -0.492188,0 -0.867188,0.2109375 -1.160156,0.609375 -0.292969,0.3984375 -0.433594,0.8320312 -0.433594,1.3359375 z m 5.299805,2.29687497 h -0.02344 c -0.152343,0.328125 -0.398437,0.5859375 -0.714843,0.76171875 -0.316407,0.17578125 -0.65625,0.2578125 -1.007813,0.26953125 -0.375,-0.0117187 -0.679687,-0.05859375 -0.914062,-0.1875 -0.246094,-0.10546875 -0.433594,-0.24609375 -0.550782,-0.41015625 -0.234375,-0.36328125 -0.328125,-0.70312502 -0.316406,-0.98437502 0,-0.4570312 0.105469,-0.8320312 0.328125,-1.1132812 0.210938,-0.2695313 0.480469,-0.4570313 0.808594,-0.5859375 0.328125,-0.1171875 0.691406,-0.1875 1.089844,-0.234375 0.386718,-0.023437 0.75,-0.035156 1.101562,-0.035156 h 0.128906 v -0.28125 c 0.02344,-0.9609375 -0.375,-1.4414062 -1.230468,-1.4414062 -0.5625,-0.011719 -1.101563,0.140625 -1.59375,0.4570312 v -0.6679687 c 0.492187,-0.2460938 1.03125,-0.375 1.59375,-0.3867188 1.277343,-0.011719 1.921875,0.6796875 1.910156,2.0859375 v 2.484375 c -0.01172,0.42187502 0.01172,0.80859377 0.04687,1.171875025 h -0.65625 z m -0.07031,-1.92187497 h -0.1875 c -0.292968,0 -0.574218,0.011719 -0.878906,0.023437 -0.304687,0.011719 -0.574219,0.082031 -0.820312,0.1875 -0.257813,0.082031 -0.457032,0.2109375 -0.609375,0.3984375 -0.164063,0.1875 -0.234375,0.4335937 -0.234375,0.7382812 0,0.3632813 0.105468,0.62109377 0.339843,0.77343752 0.210938,0.1640625 0.46875,0.24609375 0.785157,0.24609375 0.386718,0 0.691406,-0.0820313 0.925781,-0.24609375 0.222656,-0.15234375 0.386719,-0.33984372 0.492187,-0.55078122 0.09375,-0.234375 0.152344,-0.4570313 0.175782,-0.6679688 0,-0.234375 0.01172,-0.421875 0.01172,-0.5625 z m 2.44336,-1.5351563 c 0,-0.515625 -0.01172,-0.9375 -0.03516,-1.2539062 h 0.667969 v 1.078125 h 0.02344 c 0.128906,-0.328125 0.304687,-0.609375 0.539062,-0.84375 0.222656,-0.234375 0.515625,-0.3515625 0.855469,-0.3632813 0.175781,0.011719 0.328125,0.035156 0.457031,0.058594 v 0.7265625 c -0.140625,-0.046875 -0.304687,-0.070312 -0.480469,-0.070312 -0.257812,0.011719 -0.480468,0.070312 -0.644531,0.1992187 -0.175781,0.1289063 -0.316406,0.3046875 -0.421875,0.5390625 -0.09375,0.2226563 -0.175781,0.4570313 -0.210937,0.7148438 -0.04687,0.2695312 -0.07031,0.5390625 -0.07031,0.7851562 V 4.68125e-4 h -0.679687 z m 7.013672,-0.5039062 c -0.386719,-0.1875 -0.773438,-0.28125 -1.171875,-0.28125 -0.644532,0 -1.148438,0.2109375 -1.5,0.6445312 -0.363282,0.4335938 -0.539063,0.984375 -0.539063,1.6992188 0,0.6445312 0.175781,1.1953125 0.539063,1.6289062 0.339843,0.46875002 0.820312,0.70312502 1.429687,0.71484377 0.410156,0 0.832031,-0.09375 1.230469,-0.2578125 l 0.05859,0.64453125 c -0.433594,0.15234375 -0.914063,0.2109375 -1.394532,0.19921875 -0.867187,-0.0234375 -1.511718,-0.31640625 -1.945312,-0.890625 C 71.962927,-1.3237506 71.75199,-2.0034381 71.75199,-2.8003131 c 0,-0.9023438 0.246093,-1.6054688 0.738281,-2.1328125 0.492187,-0.5390625 1.125,-0.796875 1.945312,-0.8085938 0.328125,0 0.597657,0.023437 0.820313,0.070312 0.117187,0.023437 0.222656,0.046875 0.292969,0.070312 0.08203,0.035156 0.152343,0.058594 0.1875,0.082031 z m 1.330078,-3.3867188 h 0.679687 v 3.5859375 h 0.02344 c 0.140625,-0.3164062 0.363281,-0.5742187 0.65625,-0.7851562 0.292968,-0.1875 0.632812,-0.28125 1.03125,-0.2929688 0.726562,0.011719 1.21875,0.234375 1.488281,0.65625 0.246094,0.4453125 0.386719,1.0195313 0.375,1.734375 V 4.68125e-4 H 80.605506 V -3.3393756 c 0,-0.2578125 -0.01172,-0.4921875 -0.04687,-0.7148438 -0.03516,-0.2109375 -0.09375,-0.3984375 -0.175781,-0.5507812 -0.175781,-0.3515625 -0.527344,-0.5390625 -1.078125,-0.5390625 -0.585938,0 -1.007813,0.234375 -1.242188,0.6914062 -0.257812,0.4453125 -0.375,0.9375 -0.363281,1.453125 V 4.68125e-4 h -0.679687 z m 9.164062,0.5742188 h 3.539063 v 0.65625 h -2.8125 v 2.7421875 h 2.683593 v 0.65625 H 86.910194 V 4.68125e-4 h -0.726563 z m 4.494141,4.875 c 0,-0.8085938 0.199219,-1.4882813 0.609375,-2.0507813 0.410156,-0.5859375 1.042969,-0.8789062 1.921875,-0.890625 0.878906,0.011719 1.511719,0.3046875 1.933594,0.890625 0.398437,0.5625 0.597656,1.2421875 0.597656,2.0507813 0,0.7734375 -0.199219,1.453125 -0.597656,2.02734372 -0.421875,0.5859375 -1.054688,0.87890625 -1.933594,0.90234375 C 92.330116,0.10593687 91.697303,-0.18703188 91.287147,-0.77296938 90.876991,-1.3471881 90.677772,-2.0268756 90.677772,-2.8003131 Z m 0.726562,0 c 0,0.6679687 0.152344,1.21875 0.46875,1.640625 0.292969,0.45703122 0.738282,0.69140622 1.335938,0.70312497 0.585937,-0.0117188 1.042969,-0.24609375 1.347656,-0.70312497 0.304688,-0.421875 0.457031,-0.9726563 0.457031,-1.640625 0,-0.6796875 -0.152343,-1.2421875 -0.457031,-1.6757813 -0.304687,-0.4453125 -0.761719,-0.6679687 -1.347656,-0.6679687 -0.597656,0 -1.042969,0.2226562 -1.335938,0.6679687 -0.316406,0.4335938 -0.46875,0.9960938 -0.46875,1.6757813 z m 10.042963,1.4765625 c -0.0117,0.43359372 0.0117,0.87890622 0.0469,1.324218725 h -0.65625 V -0.99562563 h -0.0234 c -0.0469,0.1171875 -0.11719,0.234375 -0.21094,0.36328125 -0.0703,0.140625 -0.1875,0.2578125 -0.3164,0.375 -0.14063,0.1171875 -0.304688,0.19921875 -0.503906,0.26953125 -0.199219,0.08203125 -0.445313,0.1171875 -0.726563,0.1171875 -0.65625,-0.0117187 -1.148437,-0.2109375 -1.429687,-0.609375 -0.292969,-0.3984375 -0.445313,-0.91406247 -0.433594,-1.54687497 v -3.5859375 h 0.679687 v 3.4101562 c 0,0.5390625 0.09375,0.9609375 0.304688,1.25390627 0.199219,0.31640625 0.527344,0.4921875 0.984375,0.4921875 0.304687,0 0.5625,-0.0703125 0.773437,-0.19921875 0.222653,-0.12890625 0.386713,-0.29296875 0.492183,-0.49218752 0.12891,-0.1992187 0.22266,-0.421875 0.26953,-0.65625 0.0586,-0.234375 0.082,-0.46875 0.082,-0.703125 v -3.1054687 h 0.66797 z m 1.86621,-2.9648438 c 0,-0.4335937 -0.0117,-0.8671875 -0.0351,-1.3242187 h 0.64453 v 1.0078125 h 0.0234 c 0.0703,-0.140625 0.14062,-0.2695313 0.23437,-0.3984375 0.0703,-0.140625 0.1875,-0.2578125 0.31641,-0.3632813 0.1289,-0.1289062 0.29297,-0.2109375 0.49219,-0.28125 0.19921,-0.058594 0.44531,-0.09375 0.71484,-0.09375 0.66797,0.011719 1.16016,0.2109375 1.44141,0.609375 0.28125,0.3984375 0.42187,0.9140625 0.42187,1.546875 V 4.68125e-4 h -0.66797 V -3.4096881 c 0,-0.5390625 -0.10547,-0.9609375 -0.29297,-1.2773438 -0.21093,-0.2929687 -0.53906,-0.4570312 -1.00781,-0.4570312 -0.59766,0 -1.01953,0.2226562 -1.25391,0.65625 -0.14062,0.1992187 -0.22265,0.4101562 -0.26953,0.6445312 -0.0586,0.2460938 -0.082,0.4921875 -0.082,0.7382813 V 4.68125e-4 h -0.67969 z M 113.7432,4.68125e-4 h -0.66797 V -0.89015688 h -0.0234 c -0.35157,0.69140625 -0.91407,1.03125 -1.6875,1.01953125 -0.73829,-0.0234375 -1.30079,-0.29296875 -1.66407,-0.84375 -0.38672,-0.55078127 -0.57422,-1.25390627 -0.57422,-2.08593747 -0.0117,-0.8789063 0.16407,-1.5820313 0.52735,-2.1210938 0.35156,-0.5390625 0.92578,-0.8085937 1.71094,-0.8203125 0.26953,0 0.5039,0.046875 0.70312,0.1171875 0.21094,0.082031 0.375,0.1875 0.51563,0.3046875 0.26953,0.2578125 0.43359,0.4804688 0.46875,0.65625 h 0.0234 v -3.5859375 h 0.66797 z M 109.85258,-2.8003131 c 0,0.2578125 0.0234,0.5273437 0.082,0.796875 0.0469,0.28125 0.1289,0.5390625 0.24609,0.7734375 0.12891,0.2226562 0.30469,0.39843747 0.49219,0.53906247 0.21094,0.15234375 0.46875,0.234375 0.79687,0.234375 0.29297,0 0.55079,-0.0820313 0.76172,-0.234375 0.21094,-0.140625 0.375,-0.32812497 0.49219,-0.56249997 0.24609,-0.4921875 0.36328,-1.0078125 0.35156,-1.546875 0,-0.2695313 -0.0234,-0.5390625 -0.0703,-0.8203125 -0.0586,-0.2578125 -0.15234,-0.515625 -0.28125,-0.75 -0.11719,-0.234375 -0.28125,-0.421875 -0.49219,-0.5742188 -0.21093,-0.140625 -0.46875,-0.1992187 -0.76172,-0.1992187 -0.32812,0 -0.58593,0.058594 -0.79687,0.1992187 -0.1875,0.140625 -0.36328,0.3164063 -0.49219,0.5507813 -0.11719,0.2226562 -0.19922,0.46875 -0.24609,0.75 -0.0586,0.28125 -0.082,0.5625 -0.082,0.84375 z m 8.82422,1.89843747 h -0.0234 c -0.15235,0.328125 -0.39844,0.5859375 -0.71485,0.76171875 -0.3164,0.17578125 -0.65625,0.2578125 -1.00781,0.26953125 -0.375,-0.0117187 -0.67969,-0.05859375 -0.91406,-0.1875 -0.24609,-0.10546875 -0.43359,-0.24609375 -0.55078,-0.41015625 -0.23438,-0.36328125 -0.32813,-0.70312502 -0.31641,-0.98437502 0,-0.4570312 0.10547,-0.8320312 0.32813,-1.1132812 0.21093,-0.2695313 0.48047,-0.4570313 0.80859,-0.5859375 0.32813,-0.1171875 0.69141,-0.1875 1.08984,-0.234375 0.38672,-0.023437 0.75,-0.035156 1.10157,-0.035156 h 0.1289 v -0.28125 c 0.0234,-0.9609375 -0.375,-1.4414062 -1.23047,-1.4414062 -0.5625,-0.011719 -1.10156,0.140625 -1.59375,0.4570312 v -0.6679687 c 0.49219,-0.2460938 1.03125,-0.375 1.59375,-0.3867188 1.27735,-0.011719 1.92188,0.6796875 1.91016,2.0859375 v 2.484375 c -0.0117,0.42187502 0.0117,0.80859377 0.0469,1.171875025 h -0.65625 z m -0.0703,-1.92187497 h -0.1875 c -0.29297,0 -0.57422,0.011719 -0.8789,0.023437 -0.30469,0.011719 -0.57422,0.082031 -0.82032,0.1875 -0.25781,0.082031 -0.45703,0.2109375 -0.60937,0.3984375 -0.16406,0.1875 -0.23438,0.4335937 -0.23438,0.7382812 0,0.3632813 0.10547,0.62109377 0.33985,0.77343752 0.21094,0.1640625 0.46875,0.24609375 0.78515,0.24609375 0.38672,0 0.69141,-0.0820313 0.92579,-0.24609375 0.22265,-0.15234375 0.38671,-0.33984372 0.49218,-0.55078122 0.0937,-0.234375 0.15235,-0.4570313 0.17578,-0.6679688 0,-0.234375 0.0117,-0.421875 0.0117,-0.5625 z m 4.78418,-2.1914063 h -1.23047 v 3.6328125 c 0,0.2578125 0.0586,0.46875002 0.17578,0.64453127 0.10547,0.1875 0.29297,0.28125 0.55079,0.28125 0.24609,0 0.45703,-0.046875 0.62109,-0.140625 l 0.0469,0.57421875 c -0.082,0.03515625 -0.1875,0.05859375 -0.33984,0.10546875 -0.15234,0.0234375 -0.31641,0.046875 -0.49219,0.046875 -0.28125,0 -0.51562,-0.046875 -0.6914,-0.15234375 -0.16407,-0.10546875 -0.28125,-0.24609375 -0.36328,-0.41015625 -0.082,-0.17578125 -0.11719,-0.375 -0.14063,-0.58593747 -0.0234,-0.2226563 -0.0352,-0.46875 -0.0352,-0.7148438 v -3.28125 h -1.0664 v -0.5976562 h 1.0664 v -1.3476563 l 0.66797,-0.2460937 v 1.59375 h 1.23047 z m 1.32129,-0.5976562 h 0.67969 V 4.68125e-4 h -0.67969 z m 0.67969,-1.5 h -0.67969 v -0.9140625 h 0.67969 z m 1.36523,4.3125 c 0,-0.8085938 0.19922,-1.4882813 0.60938,-2.0507813 0.41015,-0.5859375 1.04297,-0.8789062 1.92187,-0.890625 0.87891,0.011719 1.51172,0.3046875 1.9336,0.890625 0.39843,0.5625 0.59765,1.2421875 0.59765,2.0507813 0,0.7734375 -0.19922,1.453125 -0.59765,2.02734372 -0.42188,0.5859375 -1.05469,0.87890625 -1.9336,0.90234375 -0.8789,-0.0234375 -1.51172,-0.31640625 -1.92187,-0.90234375 -0.41016,-0.57421872 -0.60938,-1.25390622 -0.60938,-2.02734372 z m 0.72657,0 c 0,0.6679687 0.15234,1.21875 0.46875,1.640625 0.29296,0.45703122 0.73828,0.69140622 1.33593,0.70312497 0.58594,-0.0117188 1.04297,-0.24609375 1.34766,-0.70312497 0.30469,-0.421875 0.45703,-0.9726563 0.45703,-1.640625 0,-0.6796875 -0.15234,-1.2421875 -0.45703,-1.6757813 -0.30469,-0.4453125 -0.76172,-0.6679687 -1.34766,-0.6679687 -0.59765,0 -1.04297,0.2226562 -1.33593,0.6679687 -0.31641,0.4335938 -0.46875,0.9960938 -0.46875,1.6757813 z m 5.78906,-1.4882813 c 0,-0.4335937 -0.0117,-0.8671875 -0.0352,-1.3242187 h 0.64453 v 1.0078125 h 0.0234 c 0.0703,-0.140625 0.14063,-0.2695313 0.23438,-0.3984375 0.0703,-0.140625 0.1875,-0.2578125 0.3164,-0.3632813 0.12891,-0.1289062 0.29297,-0.2109375 0.49219,-0.28125 0.19922,-0.058594 0.44531,-0.09375 0.71484,-0.09375 0.66797,0.011719 1.16016,0.2109375 1.44141,0.609375 0.28125,0.3984375 0.42187,0.9140625 0.42187,1.546875 V 4.68125e-4 h -0.66796 V -3.4096881 c 0,-0.5390625 -0.10547,-0.9609375 -0.29297,-1.2773438 -0.21094,-0.2929687 -0.53907,-0.4570312 -1.00782,-0.4570312 -0.59765,0 -1.01953,0.2226562 -1.2539,0.65625 -0.14063,0.1992187 -0.22266,0.4101562 -0.26953,0.6445312 -0.0586,0.2460938 -0.082,0.4921875 -0.082,0.7382813 V 4.68125e-4 h -0.67969 z m 0,0"
         style="fill:#6ba2dc;fill-opacity:1;fill-rule:nonzero;stroke:none"
         aria-label="German Research Foundation"
         transform="matrix(1.3333333,0,0,1.3333333,129.94787,65.772813)" />
    </g>
  </g>
</svg>
